<?xml version="1.0" encoding="iso-8859-1"?>
<!-- Generator: Adobe Illustrator 16.0.0, SVG Export Plug-In . SVG Version: 6.00 Build 0)  -->
<!DOCTYPE svg PUBLIC "-//W3C//DTD SVG 1.1//EN" "http://www.w3.org/Graphics/SVG/1.1/DTD/svg11.dtd">
<svg version="1.1" id="Capa_1" xmlns="http://www.w3.org/2000/svg" xmlns:xlink="http://www.w3.org/1999/xlink" x="0px" y="0px"
	 width="917.848px" height="917.848px" viewBox="0 0 917.848 917.848" style="enable-background:new 0 0 917.848 917.848;"
	 xml:space="preserve">
<g>
	<path d="M275.22,564.726c-47.275,25.35-90.923,48.464-122.131,94.54c-27.799,41.041-43.044,89.913-43.044,139.514v99.068
		c0,11.046,8.954,20,20,20h328.879h328.879c11.046,0,20-8.954,20-20v-99.068c0-49.601-15.245-98.473-43.044-139.514
		c-31.208-46.076-74.856-69.19-122.131-94.54c-30.445-16.325-58.747-40.114-72.439-71.148
		c87.53-41.646,148.039-130.889,148.039-234.273C718.228,116.094,602.134,0,458.924,0S199.62,116.094,199.62,259.304
		c0,103.384,60.509,192.627,148.04,234.273C333.967,524.611,305.665,548.4,275.22,564.726z"/>
</g>
<g>
</g>
<g>
</g>
<g>
</g>
<g>
</g>
<g>
</g>
<g>
</g>
<g>
</g>
<g>
</g>
<g>
</g>
<g>
</g>
<g>
</g>
<g>
</g>
<g>
</g>
<g>
</g>
<g>
</g>
</svg>
